<svg width="22" height="21" viewBox="0 0 22 21" fill="none" xmlns="http://www.w3.org/2000/svg">
<path d="M4.9475 9.13875C6.5675 12.3225 9.1775 14.9212 12.3612 16.5525L14.8363 14.0775C15.14 13.7738 15.59 13.6725 15.9838 13.8075C17.2437 14.2237 18.605 14.4488 20 14.4488C20.6187 14.4488 21.125 14.955 21.125 15.5738V19.5C21.125 20.1187 20.6187 20.625 20 20.625C9.43625 20.625 0.875 12.0638 0.875 1.5C0.875 0.88125 1.38125 0.375 2 0.375H5.9375C6.55625 0.375 7.0625 0.88125 7.0625 1.5C7.0625 2.90625 7.2875 4.25625 7.70375 5.51625C7.8275 5.91 7.7375 6.34875 7.4225 6.66375L4.9475 9.13875Z" fill="#0B72F1"/>
</svg>
